<?xml version="1.0" encoding="UTF-8" standalone="no"?>
<!-- Generator: Adobe Illustrator 18.1.0, SVG Export Plug-In . SVG Version: 6.00 Build 0)  -->

<svg
   xmlns:dc="http://purl.org/dc/elements/1.1/"
   xmlns:cc="http://creativecommons.org/ns#"
   xmlns:rdf="http://www.w3.org/1999/02/22-rdf-syntax-ns#"
   xmlns:svg="http://www.w3.org/2000/svg"
   xmlns="http://www.w3.org/2000/svg"
   xmlns:sodipodi="http://sodipodi.sourceforge.net/DTD/sodipodi-0.dtd"
   xmlns:inkscape="http://www.inkscape.org/namespaces/inkscape"
   version="1.1"
   id="Layer_1"
   x="0px"
   y="0px"
   viewBox="0 0 230 118.6"
   enable-background="new 0 0 230 118.6"
   xml:space="preserve"
   inkscape:version="0.91 r13725"
   sodipodi:docname="logo_cmp_white.svg"><metadata
     id="metadata75"><rdf:RDF><cc:Work
         rdf:about=""><dc:format>image/svg+xml</dc:format><dc:type
           rdf:resource="http://purl.org/dc/dcmitype/StillImage" /><dc:title></dc:title></cc:Work></rdf:RDF></metadata><defs
     id="defs73" /><sodipodi:namedview
     pagecolor="#ffffff"
     bordercolor="#666666"
     borderopacity="1"
     objecttolerance="10"
     gridtolerance="10"
     guidetolerance="10"
     inkscape:pageopacity="0"
     inkscape:pageshadow="2"
     inkscape:window-width="1246"
     inkscape:window-height="941"
     id="namedview71"
     showgrid="false"
     inkscape:zoom="1.5521739"
     inkscape:cx="19.971989"
     inkscape:cy="59.299999"
     inkscape:window-x="0"
     inkscape:window-y="0"
     inkscape:window-maximized="0"
     inkscape:current-layer="Layer_1" /><g
     id="g3"><g
       id="g7"
       style="fill:#ffffff;fill-opacity:1"><path
         d="M21.9,20.6v3.8h1c1.4,0,2.5-0.5,2.5-1.9c0-1.4-1-1.8-2.5-1.8H21.9z M21.9,31.7h-3.5V17.5h5.1    c3.5,0,5.3,2.2,5.3,4.9c0,2.7-1.8,5-5.3,5h-1.7V31.7z"
         id="path9"
         fill="#0F2F7F"
         style="fill:#ffffff;fill-opacity:1" /><path
         d="M32.4,27c0,1.2,0.7,2,1.8,2c1.1,0,1.8-0.9,1.8-2c0-1.2-0.8-2-1.8-2C33.1,25,32.4,25.8,32.4,27 M29.1,27    c0-2.9,2.2-4.9,5.1-4.9c2.8,0,5.1,2.1,5.1,4.9c0,2.9-2.2,5-5.1,5C31.4,32,29.1,29.9,29.1,27"
         id="path11"
         fill="#0F2F7F"
         style="fill:#ffffff;fill-opacity:1" /><path
         d="M46.8,25.7h-1.2c-1.4,0-1.8,0.5-1.8,1.7v4.3h-3.2v-9.4h3.1v1.5c0.4-1,1.3-1.6,2.3-1.6c0.2,0,0.5,0,0.7,0.1    V25.7z"
         id="path13"
         fill="#0F2F7F"
         style="fill:#ffffff;fill-opacity:1" /><path
         d="M52.1,18.9v3.4H54v2.8h-1.9v3.3c0,0.5,0.5,0.6,0.8,0.6c0.6,0,1.1-0.1,1.1-0.1v2.8c0,0-1.5,0.1-2.3,0.1    c-1.5,0-2.8-0.4-2.8-2.4v-4.4h-1.4v-2.8h1.4v-3.4H52.1z"
         id="path15"
         fill="#0F2F7F"
         style="fill:#ffffff;fill-opacity:1" /><path
         d="M58.3,27c0,1.2,0.7,2,1.8,2c1.1,0,1.8-0.9,1.8-2c0-1.2-0.8-2-1.8-2C59.1,25,58.3,25.8,58.3,27 M55.1,27    c0-2.9,2.2-4.9,5-4.9c2.8,0,5.1,2.1,5.1,4.9c0,2.9-2.2,5-5.1,5C57.4,32,55.1,29.9,55.1,27"
         id="path17"
         fill="#0F2F7F"
         style="fill:#ffffff;fill-opacity:1" /><path
         d="M68.5,27.9c1.1,0,2,0.9,2,2c0,1.1-0.9,2-2,2c-1.1,0-2-0.9-2-2C66.5,28.8,67.4,27.9,68.5,27.9"
         id="path19"
         fill="#0F2F7F"
         style="fill:#ffffff;fill-opacity:1" /><path
         d="M31.7,42.3h-1.3c-0.8-2.2-2.7-3.6-5.3-3.6c-3.5,0-5.9,2.7-5.9,6.2c0,3.6,2.4,6.2,5.9,6.2    c2.6,0,4.5-1.4,5.3-3.6h1.3c-0.9,2.9-3.5,4.7-6.6,4.7c-4,0-7.2-3.1-7.2-7.3c0-4.3,3.2-7.3,7.2-7.3C28.2,37.6,30.8,39.4,31.7,42.3"
         id="path21"
         fill="#0F2F7F"
         style="fill:#ffffff;fill-opacity:1" /><path
         d="M39.2,48.8v-1.2c-0.2,0.3-0.7,0.3-1.2,0.3h-1.7c-1.3,0-1.9,0.6-1.9,1.6c0,0.8,0.6,1.7,2.1,1.7    C37.9,51.2,39.2,50.4,39.2,48.8 M39.7,41.3h-1.3L37.1,39l-1.3,2.3h-1.3l1.8-3.2h1.7L39.7,41.3z M39.2,45.8c0-1.4-1.1-1.9-2.2-1.9    c-1.1,0-2,0.5-2.7,1L33.6,44c0.6-0.5,1.9-1.1,3.4-1.1c2.1,0,3.4,1.2,3.4,3V52h-1.2v-1.1c-0.5,0.9-1.7,1.4-2.8,1.4    c-1.9,0-3.2-1.1-3.2-2.7c0-1.6,1.2-2.6,3-2.6h2.1c0.6,0,0.9-0.3,0.9-0.8V45.8z"
         id="path23"
         fill="#0F2F7F"
         style="fill:#ffffff;fill-opacity:1" /><path
         d="M50.6,46.4V52h-1.2v-5.9c0-1.4-0.8-2.1-2.1-2.1c-1.1,0-2,0.6-2.8,1.6V52h-1.2v-8.9h1.2v1.3    c0.8-0.9,1.7-1.5,3-1.5c1.5,0,2.5,0.7,2.9,1.7c1-1.2,2-1.7,3.3-1.7c2.1,0,3.2,1.3,3.2,3.2V52h-1.2v-5.9c0-1.4-0.8-2.1-2.1-2.1    c-1.1,0-2,0.6-2.9,1.6C50.6,45.8,50.6,46.1,50.6,46.4"
         id="path25"
         fill="#0F2F7F"
         style="fill:#ffffff;fill-opacity:1" /><path
         d="M64.9,48.8v-1.2c-0.2,0.3-0.7,0.3-1.2,0.3h-1.7c-1.3,0-1.9,0.6-1.9,1.6c0,0.8,0.6,1.7,2.1,1.7    C63.6,51.2,64.9,50.4,64.9,48.8 M64.9,45.8c0-1.4-1.1-1.9-2.2-1.9c-1.1,0-2,0.5-2.7,1L59.3,44c0.6-0.5,1.9-1.1,3.4-1.1    c2.1,0,3.4,1.2,3.4,3V52h-1.2v-1.1c-0.5,0.9-1.7,1.4-2.8,1.4c-1.9,0-3.2-1.1-3.2-2.7c0-1.6,1.2-2.6,3-2.6H64    c0.6,0,0.9-0.3,0.9-0.8V45.8z"
         id="path27"
         fill="#0F2F7F"
         style="fill:#ffffff;fill-opacity:1" /><path
         d="M73.4,44.2h-0.6c-1.6,0-2.7,0.7-2.7,2.8v5h-1.2v-8.9H70v1.5c0.5-1.2,1.6-1.7,2.7-1.7c0.2,0,0.4,0,0.7,0    V44.2z"
         id="path29"
         fill="#0F2F7F"
         style="fill:#ffffff;fill-opacity:1" /><path
         d="M80.5,48.8v-1.2c-0.2,0.3-0.7,0.3-1.2,0.3h-1.7c-1.3,0-1.9,0.6-1.9,1.6c0,0.8,0.6,1.7,2.1,1.7    C79.2,51.2,80.5,50.4,80.5,48.8 M80.5,45.8c0-1.4-1.1-1.9-2.2-1.9c-1.1,0-2,0.5-2.7,1L74.9,44c0.6-0.5,1.9-1.1,3.4-1.1    c2.1,0,3.4,1.2,3.4,3V52h-1.2v-1.1c-0.5,0.9-1.7,1.4-2.8,1.4c-1.9,0-3.2-1.1-3.2-2.7c0-1.6,1.2-2.6,3-2.6h2.1    c0.6,0,0.9-0.3,0.9-0.8V45.8z"
         id="path31"
         fill="#0F2F7F"
         style="fill:#ffffff;fill-opacity:1" /><polygon
         points="30,58.1 31.9,58.1 31.9,72.3 30.7,72.3 30.7,59.6 26,69.6 24.7,69.6 20.1,59.6 20.1,72.3     18.9,72.3 18.9,58.1 20.8,58.1 25.4,68.1   "
         id="polygon33"
         fill="#0F2F7F"
         style="fill:#ffffff;fill-opacity:1" /><path
         d="M35.1,69.1v-5.8h1.2V69c0,1.6,1.1,2.5,2.6,2.5c1.5,0,2.6-0.8,2.6-2.5v-5.6h1.2v5.8c0,1.9-1.3,3.4-3.8,3.4    C36.4,72.5,35.1,71,35.1,69.1"
         id="path35"
         fill="#0F2F7F"
         style="fill:#ffffff;fill-opacity:1" /><path
         d="M51.8,66.4c0-1.4-0.9-2.2-2.2-2.2c-1.1,0-2.1,0.6-3,1.6v6.5h-1.2v-8.9h1.2v1.3c0.8-1,1.9-1.5,3.2-1.5    c2.1,0,3.2,1.3,3.2,3.2v5.9h-1.2V66.4z"
         id="path37"
         fill="#0F2F7F"
         style="fill:#ffffff;fill-opacity:1" /><path
         d="M56.7,59c0.6,0,1.1,0.5,1.1,1.1c0,0.6-0.5,1.1-1.1,1.1c-0.6,0-1.1-0.5-1.1-1.1C55.6,59.5,56.1,59,56.7,59     M57.4,72.3h-1.2v-7.9h-1.4v-1h2.6V72.3z"
         id="path39"
         fill="#0F2F7F"
         style="fill:#ffffff;fill-opacity:1" /><path
         d="M64.2,71.5c1.3,0,2.4-0.7,2.9-1.8l1,0.6c-0.7,1.4-2.3,2.3-4,2.3c-2.6,0-4.6-2-4.6-4.7c0-2.7,2-4.7,4.6-4.7    c1.7,0,3.2,0.9,4,2.3l-1,0.6c-0.5-1.1-1.6-1.8-2.9-1.8c-2,0-3.4,1.6-3.4,3.6C60.9,69.9,62.2,71.5,64.2,71.5"
         id="path41"
         fill="#0F2F7F"
         style="fill:#ffffff;fill-opacity:1" /><path
         d="M71.2,59c0.6,0,1.1,0.5,1.1,1.1c0,0.6-0.5,1.1-1.1,1.1c-0.6,0-1.1-0.5-1.1-1.1C70.1,59.5,70.6,59,71.2,59     M71.9,72.3h-1.2v-7.9h-1.4v-1h2.6V72.3z"
         id="path43"
         fill="#0F2F7F"
         style="fill:#ffffff;fill-opacity:1" /><path
         d="M79.3,64.2c-2,0-3.4,1.6-3.4,3.6c0,2,1.4,3.6,3.4,3.6c2,0,3.4-1.6,3.4-3.6C82.6,65.8,81.3,64.2,79.3,64.2     M76,70.6v5.2h-1.2V63.3H76v1.7c0.5-1.1,1.9-2,3.4-2c2.5,0,4.5,2,4.5,4.7c0,2.7-2,4.7-4.5,4.7C77.9,72.5,76.5,71.7,76,70.6"
         id="path45"
         fill="#0F2F7F"
         style="fill:#ffffff;fill-opacity:1" /><path
         d="M91.4,69.1v-1.2c-0.2,0.3-0.7,0.3-1.2,0.3h-1.7c-1.3,0-1.9,0.6-1.9,1.6c0,0.8,0.6,1.7,2.1,1.7    C90.1,71.5,91.4,70.7,91.4,69.1 M91.4,66.1c0-1.4-1.1-1.9-2.2-1.9c-1.1,0-2,0.5-2.7,1l-0.6-0.9c0.6-0.5,1.9-1.1,3.4-1.1    c2.1,0,3.4,1.2,3.4,3v6.1h-1.2v-1.1c-0.5,0.9-1.7,1.4-2.8,1.4c-1.9,0-3.2-1.1-3.2-2.7c0-1.6,1.2-2.6,3-2.6h2.1    c0.6,0,0.9-0.3,0.9-0.8V66.1z"
         id="path47"
         fill="#0F2F7F"
         style="fill:#ffffff;fill-opacity:1" /><rect
         x="95.4"
         y="58.1"
         width="1.2"
         height="14.2"
         id="rect49"
         fill="#0F2F7F"
         style="fill:#ffffff;fill-opacity:1" /><g
         id="g51"
         style="fill:#ffffff;fill-opacity:1"><path
           d="M230,0H0v118.6h230V0z M223.8,6.2v64H188V29.9l-17.1-17.2l-17.1,17.2v40.3h-35.7v-64H223.8z M111.9,112.3     H6.2V6.2h105.7V112.3z M223.8,81.9L223.8,81.9l0,14h0v5.3h0v11.1H216v-11.1h-6.2v11.1H202v-11.1h-6.2v11.1H188v-11.1h-6.2v11.1     h-7.8v-11.1h-6.2v11.1h-7.8v-11.1h-6.2v11.1h-7.8v-11.1h-6.2v11.1h-7.8v-11.1h-6.2v11.1h-7.8V76.4h42V32.5l10.9-10.9l10.9,10.9     v43.9h42V81.9z"
           id="path53"
           fill="#0F2F7F"
           style="fill:#ffffff;fill-opacity:1" /><rect
           x="209.8"
           y="81.9"
           width="6.2"
           height="14"
           id="rect55"
           fill="#0F2F7F"
           style="fill:#ffffff;fill-opacity:1" /><rect
           x="195.8"
           y="81.9"
           width="6.2"
           height="14"
           id="rect57"
           fill="#0F2F7F"
           style="fill:#ffffff;fill-opacity:1" /><rect
           x="181.8"
           y="81.9"
           width="6.2"
           height="14"
           id="rect59"
           fill="#0F2F7F"
           style="fill:#ffffff;fill-opacity:1" /><rect
           x="167.8"
           y="81.9"
           width="6.2"
           height="14"
           id="rect61"
           fill="#0F2F7F"
           style="fill:#ffffff;fill-opacity:1" /><rect
           x="167.5"
           y="37.4"
           width="6.2"
           height="14"
           id="rect63"
           fill="#0F2F7F"
           style="fill:#ffffff;fill-opacity:1" /><rect
           x="153.9"
           y="81.9"
           width="6.2"
           height="14"
           id="rect65"
           fill="#0F2F7F"
           style="fill:#ffffff;fill-opacity:1" /><rect
           x="139.9"
           y="81.9"
           width="6.2"
           height="14"
           id="rect67"
           fill="#0F2F7F"
           style="fill:#ffffff;fill-opacity:1" /><rect
           x="125.9"
           y="81.9"
           width="6.2"
           height="14"
           id="rect69"
           fill="#0F2F7F"
           style="fill:#ffffff;fill-opacity:1" /></g></g></g></svg>